<?xml version="1.0" encoding="UTF-8" standalone="no"?>
<!-- metaory <metaory@gmail.com>, Apr 2024 -->

<svg
   width="100"
   height="100"
   version="1.1"
   viewBox="0 0 100 100"
   id="svg1"
   sodipodi:docname="x_json2html_240812103061.svg"
   xmlns:inkscape="http://www.inkscape.org/namespaces/inkscape"
   xmlns:sodipodi="http://sodipodi.sourceforge.net/DTD/sodipodi-0.dtd"
   xmlns="http://www.w3.org/2000/svg"
   xmlns:svg="http://www.w3.org/2000/svg">
  <defs
     id="defs1" />
  <sodipodi:namedview
     id="namedview1"
     pagecolor="#000011"
     bordercolor="#222233"
     borderopacity="1"
     inkscape:showpageshadow="0"
     inkscape:pageopacity="0"
     inkscape:pagecheckerboard="1"
     inkscape:deskcolor="#111122" />
  <rect
     fill="black"
     fill-opacity="0"
     width="100"
     height="100"
     x="0"
     y="0"
     rx="50"
     ry="50"
     id="rect1" />
  <path
     d="m 10.039063,83.08012 c 0,10.40625 5.8125,16.21875 16.124999,16.21875 h 47.671875 c 10.3125,0 16.125,-5.8125 16.125,-16.21875 V 17.126995 c 0,-10.3593749 -5.8125,-16.21874991 -16.125,-16.21874991 H 26.164062 c -10.312499,0 -16.124999,5.85937501 -16.124999,16.21874991 z M 40.929687,41.595745 v -18.5625 c 0,-1.5 1.125,-2.625 2.578125,-2.625 1.5,0 2.53125,1.125 2.53125,2.625 v 6 h 1.59375 c 1.40625,0 2.484375,1.078125 2.484375,2.4375 0,1.5 -1.078125,2.53125 -2.484375,2.53125 h -1.59375 v 7.59375 c 0,1.5 -1.03125,2.625 -2.53125,2.625 -1.453125,0 -2.578125,-1.125 -2.578125,-2.625 z m 16.640625,-12.65625 c -1.96875,0 -3.375,-1.5 -3.375,-3.375 0,-1.828125 1.40625,-3.28125 3.375,-3.28125 h 12.9375 c 1.96875,0 3.328125,1.453125 3.328125,3.28125 0,1.875 -1.359375,3.375 -3.328125,3.375 z m -31.59375,-3.375 c 0,-1.5 1.03125,-2.53125 2.484375,-2.53125 h 7.265625 c 1.734375,0 2.71875,1.125 2.625,2.625 -0.28125,5.90625 -2.859375,10.078125 -8.203125,13.171875 -3.140625,1.921875 -5.71875,-2.484375 -2.625,-4.3125 3.09375,-1.734375 4.78125,-3.75 5.390625,-6.46875 h -4.453125 c -1.453125,0 -2.484375,-1.03125 -2.484375,-2.484375 z m 31.59375,17.765625 c -1.96875,0 -3.375,-1.453125 -3.375,-3.375 0,-1.828125 1.40625,-3.28125 3.375,-3.28125 h 12.9375 c 1.96875,0 3.328125,1.453125 3.328125,3.28125 0,1.921875 -1.359375,3.375 -3.328125,3.375 z M 26.164062,78.908245 V 58.61137 c 0,-3.75 2.15625,-5.765625 5.859375,-5.765625 h 36.09375 c 3.796875,0 5.765625,2.015625 5.765625,5.765625 v 19.78125 h -5.34375 l -8.34375,-9.75 c -0.75,-0.890625 -1.78125,-1.21875 -2.859375,-1.21875 -0.984375,0 -1.96875,0.375 -2.90625,1.21875 l -8.8125,7.828125 -3.5625,-3.234375 c -0.796875,-0.703125 -1.734375,-1.03125 -2.625,-1.03125 -0.84375,0 -1.6875,0.328125 -2.4375,1.03125 l -5.4375,5.671875 z m 16.265625,-10.21875 c 2.53125,0 4.640625,-2.15625 4.640625,-4.6875 0,-2.53125 -2.109375,-4.5 -4.640625,-4.546875 -2.53125,-0.140625 -4.734375,2.015625 -4.6875,4.546875 0.04687,2.53125 2.15625,4.6875 4.6875,4.6875 z"
     id="text1"
     style="font-weight:bold;font-size:96px;font-family:monospace;dominant-baseline:central;text-anchor:middle;fill:#5522ff"
     aria-label="􀶫" />
</svg>
