<?xml version="1.0" encoding="UTF-8" standalone="no"?>
<!-- metaory <metaory@gmail.com>, Apr 2024 -->

<svg
   width="100"
   height="100"
   version="1.1"
   viewBox="0 0 100 100"
   id="svg1"
   sodipodi:docname="x_json2html_240812656723.svg"
   xmlns:inkscape="http://www.inkscape.org/namespaces/inkscape"
   xmlns:sodipodi="http://sodipodi.sourceforge.net/DTD/sodipodi-0.dtd"
   xmlns="http://www.w3.org/2000/svg"
   xmlns:svg="http://www.w3.org/2000/svg">
  <defs
     id="defs1" />
  <sodipodi:namedview
     id="namedview1"
     pagecolor="#000011"
     bordercolor="#222233"
     borderopacity="1"
     inkscape:showpageshadow="0"
     inkscape:pageopacity="0"
     inkscape:pagecheckerboard="1"
     inkscape:deskcolor="#111122" />
  <rect
     fill="black"
     fill-opacity="0"
     width="100"
     height="100"
     x="0"
     y="0"
     rx="0"
     ry="0"
     id="rect1" />
  <path
     d="m 15.03418,79.382605 c 0,9.105468 5.085937,14.191406 14.109375,14.191406 h 41.71289 c 9.023438,0 14.109375,-5.085938 14.109375,-14.191406 V 21.67362 c 0,-9.064453 -5.085937,-14.191406 -14.109375,-14.191406 h -41.71289 c -9.023438,0 -14.109375,5.126953 -14.109375,14.191406 z M 42.063477,43.083776 V 26.841589 c 0,-1.3125 0.984375,-2.296875 2.255859,-2.296875 1.3125,0 2.214844,0.984375 2.214844,2.296875 v 5.25 h 1.394531 c 1.230469,0 2.173828,0.943359 2.173828,2.132812 0,1.3125 -0.943359,2.214844 -2.173828,2.214844 H 46.53418 v 6.644531 c 0,1.3125 -0.902344,2.296875 -2.214844,2.296875 -1.271484,0 -2.255859,-0.984375 -2.255859,-2.296875 z M 56.624023,32.009558 c -1.722656,0 -2.953125,-1.3125 -2.953125,-2.953125 0,-1.59961 1.230469,-2.871094 2.953125,-2.871094 h 11.320313 c 1.722656,0 2.912109,1.271484 2.912109,2.871094 0,1.640625 -1.189453,2.953125 -2.912109,2.953125 z M 28.979492,29.056433 c 0,-1.3125 0.902344,-2.214844 2.173828,-2.214844 h 6.357422 c 1.517578,0 2.378906,0.984375 2.296875,2.296875 -0.246094,5.167969 -2.501953,8.818359 -7.177734,11.525391 -2.748047,1.68164 -5.003906,-2.173829 -2.296875,-3.773438 2.707031,-1.517578 4.183594,-3.28125 4.716797,-5.660156 H 31.15332 c -1.271484,0 -2.173828,-0.902344 -2.173828,-2.173828 z m 27.644531,15.544922 c -1.722656,0 -2.953125,-1.271485 -2.953125,-2.953125 0,-1.59961 1.230469,-2.871094 2.953125,-2.871094 h 11.320313 c 1.722656,0 2.912109,1.271484 2.912109,2.871094 0,1.68164 -1.189453,2.953125 -2.912109,2.953125 z M 29.143555,75.732214 V 57.972448 c 0,-3.28125 1.886718,-5.044922 5.126953,-5.044922 h 31.582031 c 3.322266,0 5.044922,1.763672 5.044922,5.044922 V 75.281042 H 66.22168 l -7.300782,-8.53125 c -0.65625,-0.779297 -1.558593,-1.066406 -2.501953,-1.066406 -0.861328,0 -1.722656,0.328125 -2.542968,1.066406 l -7.710938,6.849609 -3.117187,-2.830078 c -0.697266,-0.615234 -1.517579,-0.902343 -2.296875,-0.902343 -0.738282,0 -1.476563,0.287109 -2.132813,0.902343 l -4.757812,4.962891 z m 14.232422,-8.941406 c 2.214843,0 4.060546,-1.886719 4.060546,-4.101563 0,-2.214844 -1.845703,-3.9375 -4.060546,-3.978515 -2.214844,-0.123047 -4.142579,1.763671 -4.101563,3.978515 0.04102,2.214844 1.886719,4.101563 4.101563,4.101563 z"
     id="text1"
     style="font-weight:bold;font-size:84px;font-family:monospace;dominant-baseline:central;text-anchor:middle;fill:#5511ff"
     aria-label="􀶫" />
</svg>
